<mxfile host="app.diagrams.net" modified="2021-02-08T20:51:40.749Z" agent="5.0 (Macintosh; Intel Mac OS X 10_15_7) AppleWebKit/537.36 (KHTML, like Gecko) Chrome/88.0.4324.150 Safari/537.36" etag="WXDXgbkfHtILiSBzxGDf" version="14.3.0" type="github">
  <diagram name="Page-1" id="c37626ed-c26b-45fb-9056-f9ebc6bb27b6">
    <mxGraphModel dx="1351" dy="877" grid="1" gridSize="10" guides="1" tooltips="1" connect="1" arrows="1" fold="1" page="1" pageScale="1" pageWidth="1100" pageHeight="850" background="#ffffff" math="0" shadow="0">
      <root>
        <mxCell id="0" />
        <mxCell id="1" parent="0" />
        <mxCell id="JodUDQZmsOtPNUIp-bqu-1" value="Visokaya&lt;br&gt;192.168.1.0/24&lt;br&gt;10.10.10.1" style="shape=mxgraph.cisco.routers.router;html=1;pointerEvents=1;dashed=0;fillColor=#036897;strokeColor=#ffffff;strokeWidth=2;verticalLabelPosition=bottom;verticalAlign=top;align=center;outlineConnect=0;fontSize=20;" vertex="1" parent="1">
          <mxGeometry x="500" y="400" width="78" height="53" as="geometry" />
        </mxCell>
        <mxCell id="JodUDQZmsOtPNUIp-bqu-2" value="Gorshkovo&lt;br&gt;192.168.0.0/24&lt;br&gt;10.10.10.4" style="shape=mxgraph.cisco.routers.router;html=1;pointerEvents=1;dashed=0;fillColor=#036897;strokeColor=#ffffff;strokeWidth=2;verticalLabelPosition=bottom;verticalAlign=top;align=center;outlineConnect=0;fontSize=20;" vertex="1" parent="1">
          <mxGeometry x="250" y="550" width="78" height="53" as="geometry" />
        </mxCell>
        <mxCell id="JodUDQZmsOtPNUIp-bqu-3" value="&lt;span style=&quot;font-size: 20px&quot;&gt;Polyana&lt;br&gt;192.168.2.1/24&lt;br&gt;10.10.10.2&lt;br&gt;&lt;/span&gt;" style="shape=mxgraph.cisco.routers.router;html=1;pointerEvents=1;dashed=0;fillColor=#036897;strokeColor=#ffffff;strokeWidth=2;verticalLabelPosition=bottom;verticalAlign=top;align=center;outlineConnect=0;" vertex="1" parent="1">
          <mxGeometry x="250" y="250" width="78" height="53" as="geometry" />
        </mxCell>
        <mxCell id="JodUDQZmsOtPNUIp-bqu-4" value="Sovetskaya&lt;br&gt;192.168.3.1/24&lt;br&gt;10.10.10.3" style="shape=mxgraph.cisco.routers.router;html=1;pointerEvents=1;dashed=0;fillColor=#036897;strokeColor=#ffffff;strokeWidth=2;verticalLabelPosition=bottom;verticalAlign=top;align=center;outlineConnect=0;fontSize=20;" vertex="1" parent="1">
          <mxGeometry x="750" y="250" width="78" height="53" as="geometry" />
        </mxCell>
        <mxCell id="JodUDQZmsOtPNUIp-bqu-5" value="Zapadnaya&lt;br&gt;192.168.5.0/24&lt;br&gt;10.10.10.5" style="shape=mxgraph.cisco.routers.router;html=1;pointerEvents=1;dashed=0;fillColor=#036897;strokeColor=#ffffff;strokeWidth=2;verticalLabelPosition=bottom;verticalAlign=top;align=center;outlineConnect=0;fontSize=20;" vertex="1" parent="1">
          <mxGeometry x="750" y="550" width="78" height="53" as="geometry" />
        </mxCell>
        <mxCell id="JodUDQZmsOtPNUIp-bqu-6" value="" style="endArrow=classic;startArrow=classic;html=1;entryX=0.12;entryY=0.9;entryDx=0;entryDy=0;entryPerimeter=0;exitX=0.88;exitY=0.1;exitDx=0;exitDy=0;exitPerimeter=0;" edge="1" parent="1" source="JodUDQZmsOtPNUIp-bqu-2" target="JodUDQZmsOtPNUIp-bqu-1">
          <mxGeometry width="50" height="50" relative="1" as="geometry">
            <mxPoint x="520" y="550" as="sourcePoint" />
            <mxPoint x="570" y="500" as="targetPoint" />
            <Array as="points" />
          </mxGeometry>
        </mxCell>
        <mxCell id="JodUDQZmsOtPNUIp-bqu-7" value="" style="endArrow=classic;startArrow=classic;html=1;exitX=0.12;exitY=0.1;exitDx=0;exitDy=0;exitPerimeter=0;entryX=0.88;entryY=0.9;entryDx=0;entryDy=0;entryPerimeter=0;" edge="1" parent="1" source="JodUDQZmsOtPNUIp-bqu-5" target="JodUDQZmsOtPNUIp-bqu-1">
          <mxGeometry width="50" height="50" relative="1" as="geometry">
            <mxPoint x="520" y="550" as="sourcePoint" />
            <mxPoint x="600" y="450" as="targetPoint" />
          </mxGeometry>
        </mxCell>
        <mxCell id="JodUDQZmsOtPNUIp-bqu-8" value="" style="endArrow=classic;startArrow=classic;html=1;exitX=0.12;exitY=0.9;exitDx=0;exitDy=0;exitPerimeter=0;entryX=0.88;entryY=0.1;entryDx=0;entryDy=0;entryPerimeter=0;" edge="1" parent="1" source="JodUDQZmsOtPNUIp-bqu-4" target="JodUDQZmsOtPNUIp-bqu-1">
          <mxGeometry width="50" height="50" relative="1" as="geometry">
            <mxPoint x="799.3599999999997" y="585.3000000000002" as="sourcePoint" />
            <mxPoint x="589.6399999999999" y="455.70000000000005" as="targetPoint" />
          </mxGeometry>
        </mxCell>
        <mxCell id="JodUDQZmsOtPNUIp-bqu-9" value="" style="endArrow=classic;startArrow=classic;html=1;entryX=0.12;entryY=0.1;entryDx=0;entryDy=0;entryPerimeter=0;exitX=0.88;exitY=0.9;exitDx=0;exitDy=0;exitPerimeter=0;" edge="1" parent="1" source="JodUDQZmsOtPNUIp-bqu-3" target="JodUDQZmsOtPNUIp-bqu-1">
          <mxGeometry width="50" height="50" relative="1" as="geometry">
            <mxPoint x="520" y="550" as="sourcePoint" />
            <mxPoint x="570" y="500" as="targetPoint" />
          </mxGeometry>
        </mxCell>
      </root>
    </mxGraphModel>
  </diagram>
</mxfile>
